<?xml version="1.0" encoding="UTF-8"?>
<svg width="128" height="128" viewBox="0 0 128 128" fill="none" xmlns="http://www.w3.org/2000/svg">
  <defs>
    <linearGradient id="g1" x1="0" y1="0" x2="128" y2="128" gradientUnits="userSpaceOnUse">
      <stop stop-color="#6847FF"/>
      <stop offset="0.6" stop-color="#2CB9FF"/>
      <stop offset="1" stop-color="#00E0B8"/>
    </linearGradient>
    <filter id="shadow" x="-20%" y="-20%" width="140%" height="140%">
      <feDropShadow dx="0" dy="10" stdDeviation="10" flood-color="#000" flood-opacity="0.35"/>
    </filter>
  </defs>
  <rect x="12" y="12" width="104" height="104" rx="22" fill="#0F1624" stroke="url(#g1)" stroke-width="2" filter="url(#shadow)"/>
  <path d="M40 44c0-2.2 1.8-4 4-4h20c17 0 30 13 30 30s-13 30-30 30H44c-2.2 0-4-1.8-4-4V44z" fill="url(#g1)" opacity="0.18"/>
  <path d="M48 44h14c13.8 0 25 11.2 25 25s-11.2 25-25 25H48V44z" stroke="url(#g1)" stroke-width="6" stroke-linecap="round" stroke-linejoin="round"/>
  <circle cx="64" cy="69" r="7" fill="url(#g1)"/>
</svg>
